#N canvas 746 119 786 428 10;
#X obj 120 111 netreceive -u -b;
#X obj 120 142 oscparse;
#X floatatom 62 256 5 0 0 0 - - -, f 5;
#X floatatom 201 252 5 0 0 0 - - -, f 5;
#X obj 132 168 print gelen;
#X obj 201 220 route xdata;
#X obj 62 224 route ydata;
#X obj 120 191 route list;
#X obj 100 287 tabwrite array1;
#N canvas 0 50 450 250 (subpatch) 0;
#X array array1 10 float 5;
#A 0 0.783327 0.9463 0.239249 -0.687766 -0.982453 -0.373877 0.57844
0.998941 0.501021 -0.457536;
#X coords 0 1 9 -1 100 100 1 0 0;
#X restore 289 103 graph;
#X obj 478 81 print;
#X msg 478 36 Hello World;
#X msg 120 78 listen 9000;
#X connect 0 0 1 0;
#X connect 1 0 4 0;
#X connect 1 0 7 0;
#X connect 2 0 8 0;
#X connect 3 0 8 1;
#X connect 5 0 3 0;
#X connect 6 0 2 0;
#X connect 7 0 6 0;
#X connect 7 0 5 0;
#X connect 11 0 10 0;
#X connect 12 0 0 0;
