#N canvas 1528 149 869 644 10;
#X msg 450 55 listen 9000;
#X obj 450 89 netreceive -u -b;
#X obj 450 123 oscparse;
#X obj 450 182 route list;
#X floatatom 450 319 5 0 0 0 - - -, f 5;
#X floatatom 462 253 5 0 0 0 - - -, f 5;
#X obj 450 284 route leftVolume;
#X obj 462 223 route rightVolume;
#X obj 467 151 print gelen;
#X obj 288 139 oscparse;
#X msg 285 280 disconnect;
#X obj 266 314 netsend -u -b;
#X obj 266 192 list prepend send;
#X obj 266 226 list trim;
#X msg 277 253 connect localhost 9000;
#X msg 325 82 set leftVolume;
#X msg 325 55 set rightVolume;
#X floatatom 266 55 5 0 0 0 - - -, f 5;
#X obj 266 110 oscformat a b c;
#X obj 288 166 print gonder;
#X connect 0 0 1 0;
#X connect 1 0 2 0;
#X connect 2 0 3 0;
#X connect 2 0 8 0;
#X connect 3 0 6 0;
#X connect 3 0 7 0;
#X connect 6 0 4 0;
#X connect 7 0 5 0;
#X connect 9 0 19 0;
#X connect 10 0 11 0;
#X connect 12 0 13 0;
#X connect 13 0 11 0;
#X connect 14 0 11 0;
#X connect 15 0 18 0;
#X connect 16 0 18 0;
#X connect 17 0 18 0;
#X connect 18 0 12 0;
#X connect 18 0 9 0;
